<?xml version="1.0" encoding="UTF-8"?><svg xmlns="http://www.w3.org/2000/svg" viewBox="0 0 173.7 167.61"><defs><style>.d{fill:#fff;}</style></defs><g id="a"/><g id="b"><g id="c"><g><path class="d" d="M137.46,74.63c0,2.67-.14,5.36,.03,8.02,.28,4.41,0,8.81,.1,13.21,.05,2.16,.12,4.33,.13,6.49,0,1.29-.13,2.59-.11,3.88,.02,1.5,.12,3.01,.19,4.51,.05,.98,.13,1.96,.15,2.93,.09,4.24,.16,8.47,.25,12.71,.07,3.48,.08,6.97,.26,10.45,.07,1.29-.41,2.19-1.26,3-.39,.37-.83,.71-1.28,1.02-1.48,1.03-2.98,2.05-4.47,3.07-.12,.09-.24,.18-.38,.25-.57,.31-.95,.12-1.01-.54-.06-.75-.06-1.5-.12-2.25-.08-.94-.2-1.87-.29-2.8-.09-.88-.2-1.76-.26-2.64-.07-1.07,.01-2.16-.16-3.21-.17-1.05-.07-2.09-.11-3.14,0-.26-.13-.51-.18-.76-.05-.27-.12-.55-.12-.82,0-.71,.01-1.42,.02-2.12,0-1.07,.02-2.14,.02-3.21,0-.41-.04-.83-.06-1.24-.03-.49-.28-.67-.76-.54-.16,.05-.33,.08-.48,.16-1.61,.85-3.19,1.73-4.81,2.54-1.04,.52-1.59,1.18-1.56,2.45,.04,1.93-.18,3.87-.23,5.81-.06,2.41-.1,4.82-.09,7.23,0,2.56,.06,5.12,.11,7.68,.01,.54,.13,1.08,.19,1.62,.06,.52-.14,.87-.65,1.04-.43,.15-.84,.35-1.27,.49-1.56,.5-3.12,.98-4.68,1.46-.74,.23-1.46,.49-2.21,.67-.91,.22-1.29-.03-1.42-.94-.09-.63-.05-1.27-.05-1.91,0-.66,.03-1.32,.03-1.98,0-2.67,0-5.35,.01-8.02,0-1.5,.08-3,.08-4.5,0-1.56-.1-3.12-.1-4.67,0-1.61,.08-3.22,.14-4.83,.06-1.65,.16-3.3,.23-4.96,.08-2.07,.08-4.14,.23-6.21,.22-3.08,.55-6.15,.82-9.22,.17-1.95,.28-3.91,.48-5.85,.22-2.15,.52-4.3,.77-6.45,.14-1.25,.17-2.52,.4-3.75,.34-1.85,.77-3.68,1.22-5.5,.31-1.24,.72-2.45,1.09-3.67,.05-.18,.09-.37,.17-.54,.74-1.5,1.5-2.99,2.25-4.49,.08-.17,.18-.34,.31-.47,1.3-1.31,2.58-2.63,3.91-3.9,.59-.57,1.24-1.1,1.9-1.59,1.82-1.32,3.86-2.18,5.99-2.86,1.02-.32,2.01-.7,3.12-.71,.65,0,1.3-.36,1.95-.5,.95-.21,1.66,.32,1.67,1.3,.02,2.43-.01,4.86-.02,7.29,0,.51,0,1.02,0,1.53h-.09Zm-9.33,9.72c0-.74,0-2.17,0-3.6,0-.62,.01-1.24-.03-1.86-.01-.22-.16-.43-.25-.64-.21,.13-.52,.22-.62,.41-.59,1.15-1.3,2.28-1.67,3.51-.66,2.17-1.19,4.39-1.63,6.62-.38,1.91-.58,3.87-.85,5.8-.07,.5-.08,1.01-.14,1.51-.26,2.32-.57,4.63-.79,6.95-.12,1.25-.12,2.52-.16,3.77-.06,2.12-.12,4.24-.14,6.37,0,.58,.31,.74,.88,.57,.18-.05,.35-.14,.52-.22,1.55-.77,3.09-1.55,4.64-2.32,.5-.25,.79-.64,.76-1.21-.06-1.37-.16-2.74-.19-4.11-.03-1.65,0-3.3,0-4.96,0-2.54,.03-5.08-.02-7.62-.05-2.76-.19-5.53-.31-8.98Z"/><path class="d" d="M104.4,124.95c-.04,.81-.06,1.62-.15,2.42-.03,.25-.24,.6-.45,.68-.98,.37-1.99,.69-3,.96-.81,.22-1.65,.37-2.48,.49-1.44,.2-2.76,.75-4.04,1.38-.21,.1-.41,.46-.41,.71-.04,3.25-.07,6.51-.03,9.76,.02,1.94,.15,3.87,.25,5.81,.06,1.11,.31,1.2,1.34,.89,1.21-.36,2.47-.57,3.71-.86,1.44-.34,2.87-.71,4.31-1.06,1.09-.26,2.13-.71,3.3-.61,.69,.06,1.24,.39,1.32,1.07,.2,1.81,.36,3.63,.51,5.45,.04,.48-.15,.78-.65,.97-.48,.18-.88,.55-1.33,.83-1.28,.8-2.73,1.11-4.18,1.47-2.18,.55-4.4,.78-6.62,1.03-.88,.1-1.77,.11-2.65,.19-1.42,.13-2.84,.31-4.26,.43-1.01,.09-2.03,.07-3.04,.16-.65,.06-1.18-.21-1.69-.51-.16-.1-.28-.41-.28-.62-.04-2.05-.05-4.1-.08-6.15-.04-2.37-.09-4.74-.13-7.11,0-.58,.05-1.16,.04-1.74-.02-2.46-.04-4.93-.07-7.39-.02-1.92-.08-3.84-.09-5.76,0-2.11,.06-4.22,.02-6.33-.03-1.69-.2-3.38-.27-5.07-.08-1.88-.14-3.76-.19-5.63-.04-1.43-.05-2.86-.09-4.29-.02-.61-.14-.66-.73-.47-1.04,.34-2.09,.59-3.21,.34-.53-.12-.89-.39-.94-.91-.12-1.14-.17-2.28-.25-3.42-.05-.64-.07-1.28-.17-1.91-.12-.85,.42-1.78,1.21-2.11,.53-.23,1-.58,1.5-.88,1.43-.87,2.85-1.75,4.28-2.61,.8-.48,1.62-.93,2.41-1.42,.95-.59,1.88-1.24,2.84-1.83,.65-.4,1.36-.71,2.01-1.12,1-.63,2.12-1.15,2.93-1.98,1.56-1.6,3.52-2.64,5.25-3.99,1.07-.84,2.1-1.71,3.16-2.55,.53-.42,1.09-.8,1.63-1.2,.61-.44,1.27-.83,1.82-1.34,1.06-.98,2.25-1.69,3.6-2.17,.6-.21,1.19-.47,1.78-.71,.56-.23,.89,.02,.78,.62-.16,.93-.37,1.85-.55,2.77-.29,1.5-.63,2.98-.85,4.49-.57,3.97-1.09,7.94-1.62,11.92-.24,1.83-.46,3.66-.66,5.5-.06,.59-.31,.89-.85,1.18-1.51,.81-2.95,1.72-4.42,2.61-.29,.17-.58,.36-.83,.59-1.01,.92-1.86,.22-2.07-.78-.26-1.24-.27-2.54-.29-3.81-.03-1.56,.04-3.12,.06-4.69,0-.23,0-.45-.03-.68-.05-.4-.25-.56-.61-.31-.49,.34-.96,.73-1.45,1.07-1.24,.87-2.5,1.73-3.75,2.6-.4,.28-.84,.53-1.16,.88-.21,.23-.35,.63-.35,.95,0,1.73,.07,3.46,.1,5.19,.03,1.62,.02,3.24,.06,4.85,.03,1.35,.13,2.7,.15,4.06,.02,1.34-.03,2.67-.04,4.01,0,.34,0,.68,.04,1.02,.05,.59,.24,.72,.81,.58,1.87-.47,3.73-1,5.61-1.41,.78-.17,1.61-.15,2.41-.09,.84,.06,1.37,.63,1.45,1.47,.15,1.36,.24,2.73,.36,4.1h-.07Z"/><path class="d" d="M64.77,23.55c0,1.58,0,3.16,0,4.74,.01,1.71,.04,3.42,.07,5.12,.02,1.25-.27,1.72-1.44,2.17-1.42,.55-2.85,1.09-4.27,1.63-.7,.26-1.52-.22-1.58-.96-.17-1.93-.28-3.87-.45-5.8-.1-1.12-.24-2.24-.38-3.35-.05-.38-.31-.55-.65-.36-1.63,.89-3.26,1.79-4.86,2.74-.23,.14-.43,.57-.41,.85,.11,1.91,.3,3.82,.44,5.73,.08,1.09,.09,2.18,.18,3.27,.14,1.82,.37,3.63,.47,5.45,.09,1.55,.04,3.12,.08,4.67,.04,1.27,.13,2.54,.18,3.82,.03,.6,0,1.2,.04,1.8,.07,.98,.15,1.95,.26,2.92,.05,.45,.36,.5,.71,.34,.6-.27,1.18-.57,1.77-.86,1.83-.89,3.71-1.68,5.73-2.03,.65-.11,1.06,.13,1.15,.82,.12,.97,.19,1.95,.23,2.93,.05,1.26,.03,2.52,.07,3.78,.02,.53-.21,.83-.7,1.02-1.24,.5-2.47,1.01-3.68,1.55-1.4,.63-2.77,1.32-4.16,1.96-.44,.21-.66,.5-.63,1.01,.12,1.9,.26,3.8,.32,5.69,.09,2.92,.07,5.83,.17,8.75,.09,2.48,.28,4.96,.43,7.44,.03,.56,.34,.81,.89,.78,.83-.04,1.65-.11,2.48-.12,.9-.02,.98,.1,1.09,.97,.18,1.34,.38,2.67,.61,4,.25,1.41-.34,2.2-1.75,2.42-.75,.12-1.47,.44-2.23,.58-1.4,.27-2.81,.48-4.22,.71-1.54,.25-3.09,.45-4.61,.77-1.76,.37-3.52,.26-5.29,.25-.45,0-.67-.32-.66-.76,.02-1.9,.06-3.79,.06-5.69,0-.57,.29-.79,.81-.88,.74-.13,1.47-.29,2.19-.46,.43-.1,.51-.43,.52-.82,.03-1.07,.11-2.13,.12-3.19,0-.73-.08-1.45-.14-2.18-.03-.32-.11-.63-.13-.95-.08-1.29-.15-2.58-.22-3.87,0-.15-.03-.3-.03-.45-.04-1.27-.08-2.54-.1-3.82-.02-1.16,.02-2.32-.02-3.47-.06-1.39-.2-2.78-.26-4.17-.09-1.77-.14-3.53-.2-5.3-.09-2.33-.16-4.66-.28-6.99-.23-4.23-.49-8.45-.73-12.68-.13-2.27-.21-4.55-.66-6.79-.11-.53-.08-1.09-.1-1.63-.03-.69-.34-.91-.94-.57-.75,.43-1.45,.94-2.16,1.42-1.22,.81-2.45,1.62-3.66,2.44-.67,.45-1.32,.93-2,1.38-.69,.46-1.42,.32-2.03-.26-.31-.3-.72-.49-1.08-.75-.84-.6-1.73-1.13-2.49-1.82-.64-.58-.42-1.95,.24-2.53,.76-.66,1.46-1.41,2.24-2.04,.96-.78,2.02-1.45,2.97-2.24,3.72-3.07,7.81-5.56,12.1-7.73,2.42-1.22,4.8-2.53,7.25-3.69,1.59-.75,3.29-1.29,4.94-1.92,1.65-.63,3.31-1.26,4.97-1.85,.53-.19,1.1-.27,1.65-.36,.92-.15,1.5,.3,1.55,1.25,.12,2.05,.21,4.1,.31,6.15h-.08Z"/><path class="d" d="M152.49,82.71c.17-.3,.37-.58,.51-.89,.92-2.08,1.81-4.17,2.74-6.25,.4-.89,.9-1.73,1.3-2.62,.36-.8,.65-1.64,.98-2.46,.6-1.48,1.16-2.98,1.83-4.43,.64-1.38,1.37-2.72,2.09-4.06,.42-.79,.78-.91,1.65-.71,1.61,.37,3.23,.7,4.84,1.08,1.41,.33,1.78,.96,1.42,2.58-.19,.85-.66,1.63-.99,2.45-.22,.54-.39,1.1-.61,1.63-.74,1.75-1.51,3.48-2.24,5.23-.64,1.52-1.21,3.07-1.86,4.59-.68,1.57-1.37,3.14-2.13,4.67-1.16,2.34-2.39,4.65-3.59,6.98-.24,.46-.23,.91,.07,1.33,.54,.77,1.1,1.52,1.64,2.29,.94,1.33,1.95,2.63,2.81,4.02,.97,1.58,1.79,3.26,2.7,4.88,.23,.41,.57,.75,.8,1.16,.17,.31,.32,.67,.34,1.01,.08,1.5-.43,2.9-1.01,4.24-.74,1.7-1.58,3.35-2.38,5.03-.06,.12-.13,.23-.21,.34-.4,.59-.64,.61-1.04,.02-.9-1.32-1.82-2.63-2.66-3.99-.83-1.34-1.55-2.74-2.36-4.09-.54-.9-1.16-1.76-1.69-2.66-.27-.45-.41-.97-.64-1.44-.1-.2-.28-.36-.42-.54-.13,.19-.32,.36-.37,.56-.32,1.49-.56,3-.94,4.47-.27,1.06-.36,2.11-.35,3.18,.03,3.2,.05,6.4,.05,9.6,0,2.12-.03,4.25-.02,6.37,0,.76-.2,1.43-.72,1.96-1.17,1.2-2.31,2.43-3.57,3.52-1.06,.92-2.28,1.66-3.42,2.49-.3,.22-.55,.51-.84,.75-.43,.35-.78,.28-.96-.24-.12-.35-.18-.74-.18-1.11,.03-1.94,.11-3.88,.13-5.82,.02-1.54,.01-3.09-.03-4.63-.1-3.06-.24-6.12-.34-9.18-.04-1.33,0-2.66-.03-3.99-.02-.84-.1-1.69-.11-2.53-.03-1.5-.03-3.01-.03-4.51,0-1.77,.04-3.54,.06-5.31,.02-3.39,.05-6.77,.04-10.16,0-3.05-.08-6.1-.08-9.15,0-2.44,.11-4.89,.1-7.33,0-1.99-.11-3.98-.13-5.98,0-.63,.05-1.28,.18-1.9,.15-.72,.59-.88,1.31-.94,.65-.06,1.29-.36,1.93-.55,.84-.24,1.67-.54,2.53-.68,.75-.12,1.54-.1,2.31-.07,.84,.03,1.24,.45,1.27,1.27,.05,1.73,.1,3.46,.1,5.19,0,1.39-.08,2.77-.1,4.16-.04,2.33-.08,4.66-.08,7,0,1.16,.08,2.32,.13,3.49,0,.21,.07,.41,.1,.61l.18,.04Z"/><path class="d" d="M49.01,139.83c.07-1.26,.18-2.51,.19-3.77,.02-2.26-.03-4.51-.06-6.77,0-.6-.08-1.2-.09-1.8-.07-2.42-.11-4.85-.19-7.27-.06-1.84-.19-3.68-.27-5.52-.02-.41,.02-.83,.03-1.24,0-.4-.15-.65-.6-.64-.95,.02-1.92-.04-2.86,.07-.8,.09-1.48-.2-2.06-.6-.32-.22-.49-.81-.52-1.25-.09-1.33-.11-2.67-.11-4.01,0-.68,.37-.95,1.04-.78,.63,.16,1.25,.31,1.86-.05,.05-.03,.11-.03,.17-.03,2.11,.08,4.18-.4,6.27-.54,1.23-.08,2.43-.47,3.66-.66,.66-.1,1.34-.09,2.01-.13,.17-.01,.34,0,.5-.03,1.23-.23,2.46-.51,3.7-.68,1.1-.15,2.21-.17,3.31-.25,.24-.02,.52,0,.71-.12,.69-.39,1.41-.36,2.14-.24,4.51,.74,7.7,3.29,9.9,7.2,1.24,2.2,1.39,4.62,1.41,7.06,.02,2.13-.28,4.2-1.11,6.18-.17,.4-.34,.81-.58,1.16-1.22,1.76-2.46,3.52-4.23,4.79-.83,.6-1.68,1.19-2.57,1.69-1.01,.57-1.29,1.29-.76,2.4,.93,1.96,1.89,3.89,2.79,5.86,1.18,2.58,2.27,5.21,3.49,7.78,1.36,2.87,2.83,5.7,4.25,8.55,.09,.19,.2,.37,.29,.55,.22,.44,.16,.74-.36,.91-.74,.24-1.44,.39-2.26,.29-1.66-.2-3.34-.25-5.01-.35-.99-.06-1.73-.37-2.11-1.43-.51-1.43-1.14-2.83-1.76-4.22-.42-.94-.98-1.82-1.4-2.76-.57-1.29-1.03-2.63-1.61-3.91-.51-1.12-1.14-2.2-1.71-3.3-.14-.27-.27-.54-.39-.81-.63-1.34-1.28-2.68-1.89-4.04-.28-.62-.5-1.26-.75-1.89-.17-.44-.47-.69-.97-.73-.49-.04-.96-.17-1.44-.26-.66-.11-.85,.05-.84,.74,.03,1.69,.06,3.39,.09,5.08,.03,1.65,.04,3.31,.07,4.96,0,.32,.05,.64,.09,.95,.05,.44,.3,.68,.71,.85,.85,.35,1.67,.74,2.5,1.14,.41,.2,.6,.56,.61,1.01,.01,1.77,.02,3.54,.02,5.31,0,.41-.23,.71-.62,.77-.42,.07-.88,.13-1.27,.02-2.3-.64-4.59-1.34-6.88-2-2.2-.64-4.3-1.5-6.31-2.6-.44-.24-.93-.42-1.4-.6-.4-.16-.6-.42-.58-.86,.07-1.45,.12-2.9,.22-4.34,.07-1.01,.37-1.21,1.35-.98,1.86,.42,2.62,.1,2.34-2.09-.07-.58-.06-1.17-.08-1.75h-.08Zm21.15-22.16c-.02-.42-.04-.7-.05-.98-.09-2.1-1.16-3.55-3-4.48-1.12-.57-2.32-.64-3.56-.71-1.74-.1-3.32,.4-4.9,1-.73,.27-1,.8-.96,1.54,.06,.96,.13,1.91,.16,2.87,.04,1.56,.03,3.12,.07,4.68,.03,1.11,.12,2.21,.21,3.32,.04,.49,.34,.82,.8,.92,.64,.13,1.32,.33,1.95,.24,2.9-.38,5.55-1.34,7.55-3.62,1.23-1.4,2.15-2.93,1.73-4.78Z"/><path class="d" d="M90.25,14.94c0,1-.01,2,0,2.99,0,.45-.12,.77-.6,.88-.62,.14-1.22,.32-1.85,.41-3.14,.44-6.24,1.03-9.27,1.97-.81,.25-1.26,.91-1.25,1.93,0,1.48,.04,2.97,.08,4.45,.05,1.63,.14,3.27,.18,4.9,.06,2.58,.13,5.15,.12,7.73,0,1.65-.17,3.3-.24,4.94-.02,.37,.07,.75,.07,1.12,0,1.05-.03,2.11-.04,3.16,0,.73,.11,.78,.78,.54,1.86-.68,3.72-1.33,5.59-1.98,.64-.22,1.28-.45,1.93-.62,.67-.17,.93,.01,.99,.7,.09,1.13,.12,2.26,.16,3.38,.03,1.05,.04,2.11,.06,3.16,.01,.7-.31,1.16-.97,1.43-2.25,.9-4.5,1.82-6.75,2.75-.47,.19-.94,.4-1.36,.69-.21,.14-.41,.47-.41,.72-.04,2.58-.02,5.15-.04,7.73-.02,2.5-.07,5-.07,7.5,0,2.67,.04,5.34,.08,8.02,0,.61,.22,.76,.78,.54,.77-.3,1.53-.64,2.26-1.01,.68-.34,1.02-.25,1.1,.5,.17,1.53,.3,3.07,.37,4.61,.02,.39-.14,.95-.43,1.16-1.39,1.05-2.77,2.17-4.3,2.98-2.16,1.14-4.42,2.09-6.69,2.99-1.39,.55-2.86,.92-4.32,1.28-.79,.2-1.28-.23-1.4-1.04-.09-.6-.14-1.2-.2-1.8-.12-1.18-.23-2.36-.35-3.54-.05-.46,.09-.76,.59-.86,.44-.08,.86-.24,1.3-.33,1.03-.2,1.39-.63,1.36-1.73-.04-1.47-.13-2.93-.16-4.4-.07-3.22-.11-6.43-.16-9.65-.07-4.05-.15-8.09-.19-12.14-.01-1.12,.11-2.25,.14-3.37,.01-.68-.06-1.35-.06-2.03,0-1.33,.04-2.67,.03-4,0-.96-.08-1.91-.08-2.87,0-3.14,0-6.28,.04-9.43,.02-1.95,.17-3.91,.16-5.86-.02-2.16-.17-4.32-.23-6.48-.01-.48,.14-.97,.15-1.45,.02-1.71,.05-3.43,0-5.14-.02-1.03-.14-2.06-.27-3.09-.09-.65,.11-1.13,.69-1.4,.61-.29,1.25-.5,1.88-.76,.7-.28,1.38-.59,2.09-.85,.97-.36,1.93-.71,2.92-1.02,1.66-.53,3.34-1.05,5.01-1.54,.38-.11,.81-.06,1.21-.11,.87-.11,1.76-.19,2.61-.39,1.52-.36,3.06-.38,4.61-.32,.47,.02,.94,.03,1.41,.01,.53-.02,.81,.2,.83,.75,.04,1.09,.09,2.18,.14,3.27h-.04Z"/><path class="d" d="M115.99,17.9c-.1,1.35-.21,2.7-.3,4.05-.04,.53-.29,.81-.83,.76-1.05-.09-2.09-.2-3.14-.29-1.59-.13-3.18-.24-4.77-.36-.75-.06-1.49-.15-2.24-.22-.26-.02-.53-.05-.79-.04-1.16,.02-1.18,.09-1.18,1.22,0,.8-.18,1.6-.21,2.41-.03,.94,.04,1.88,.05,2.81,.03,2.58,.05,5.15,.08,7.73,.02,1.39,.06,2.78,.08,4.17,0,.37-.05,.75-.07,1.13-.04,.7,.29,.87,.95,.65,.61-.2,1.27-.28,1.92-.39,1.51-.26,3.03-.51,4.55-.76,.15-.02,.3-.05,.45-.06,.91-.06,1.14,.08,1.21,.98,.14,1.99,.24,3.98,.32,5.97,.03,.71-.26,.96-.96,1.08-1.49,.26-2.98,.59-4.47,.81-1.17,.18-2.19,.74-3.26,1.15-.44,.17-.59,.48-.58,.92,.03,.79,.06,1.58,.06,2.37,0,1.11-.07,2.22-.05,3.33,.03,1.31,.13,2.62,.18,3.93,.03,.71,0,1.43,.03,2.14,.02,.54,.31,.72,.78,.5,1.53-.72,3.08-1.42,4.59-2.18,.68-.34,1.29-.83,1.96-1.22,.61-.36,1.24-.72,1.89-1,.81-.35,1.66-.6,2.49-.92,.48-.18,.78,0,.94,.42,.12,.31,.21,.65,.24,.98,.13,1.69,.21,3.38,.35,5.07,.05,.62-.21,1-.72,1.28-.61,.34-1.21,.69-1.81,1.03-.11,.06-.24,.15-.36,.16-1.13,0-1.94,.7-2.73,1.35-1.05,.87-2.19,1.57-3.39,2.21-.61,.33-1.13,.81-1.71,1.18-.72,.47-1.47,.91-2.21,1.34-.68,.4-1.39,.74-2.05,1.16-1.02,.66-2.02,1.37-3.02,2.05-.15,.11-.29,.25-.46,.32-1.85,.81-3.38,2.12-4.99,3.28-.35,.25-.71,.5-1.08,.72-.74,.43-.97,.32-1.06-.53-.14-1.33-.27-2.66-.42-3.99-.1-.9-.22-1.79-.32-2.69-.08-.69,.21-1.21,.77-1.59,.48-.33,.98-.64,1.47-.95,.64-.39,.94-.95,1.06-1.7,.43-2.68,.15-5.37,.21-8.06,.02-.94,.07-1.88,.07-2.82,0-.83-.06-1.65-.08-2.48-.04-1.82-.06-3.65-.13-5.47-.04-1.22-.15-2.43-.2-3.65-.03-.69,.01-1.39,0-2.08,0-1.24-.03-2.48-.03-3.71,0-3.41-.01-6.81,0-10.22,0-1.99,.08-3.99,.06-5.98,0-.9-.25-1.79-.24-2.69,.04-2.5,.16-5.01,.23-7.51,.02-.83-.01-1.66,.03-2.48,.04-.88,.5-1.15,1.35-1.01,.81,.13,1.65,.14,2.47,.2,.65,.05,1.3,.11,1.94,.17,.99,.09,1.98,.18,2.97,.3,.98,.12,1.97,.24,2.94,.44,2.18,.43,4.35,.92,6.52,1.37,.49,.1,1.02,.09,1.5,.24,.91,.27,1.81,.58,2.69,.95,.19,.08,.32,.46,.34,.72,.05,.66,.02,1.32,.02,1.98h.11Z"/><path class="d" d="M3.81,73.49c.07-2.58,.2-4.54,.15-6.49-.03-1.23,.13-2.39,.42-3.56,.18-.72,.11-1.51,.32-2.22,.28-1.01,.82-1.95,1.05-2.97,.41-1.79,1.2-3.4,1.98-5.02,.15-.32,.41-.58,.6-.88,.55-.85,1.03-1.76,1.67-2.54,.61-.74,1.39-1.35,2.1-2.02,.11-.1,.27-.15,.37-.26,1.6-1.69,3.59-2.84,5.67-3.8,1.6-.74,3.34-1.02,5.09-1.21,1.99-.22,3.81,.34,5.59,1.2,1.06,.51,1.94,1.23,2.75,2.03,.87,.86,1.69,1.76,2.52,2.66,.45,.49,.94,.98,1.28,1.55,.69,1.15,1.37,2.31,1.89,3.54,.3,.7,.33,1.53,.4,2.3,.04,.43-.23,.74-.69,.83-1.62,.34-3.25,.67-4.86,1.03-.61,.14-1.04-.06-1.33-.58-.35-.63-.65-1.27-.99-1.9-.88-1.65-2.16-2.92-3.59-4.13-1.07-.9-2.24-1.08-3.44-1.13-.83-.04-1.67,.35-2.5,.57-1.09,.28-1.65,1.27-2.47,1.91-1.27,.99-2.2,2.26-3.02,3.63-.07,.11-.15,.22-.19,.35-.7,1.92-1.46,3.83-2.08,5.77-.24,.75-.19,1.59-.26,2.4-.18,2.12-.44,4.23-.5,6.35-.04,1.55,.12,3.11,.3,4.65,.2,1.66,.47,3.32,.85,4.94,.31,1.33,.68,2.69,1.3,3.9,.86,1.69,1.96,3.25,2.97,4.85,.98,1.55,2.56,2.4,4.11,3.17,1.23,.62,2.67,.74,4.08,.45,3.06-.62,5.19-2.5,6.96-4.96,1.3-1.81,1.98-3.82,2.31-5.99,.12-.82,.36-1.62,.54-2.42,.08-.38,.32-.61,.7-.63,.99-.05,1.99-.08,2.98-.11,.39-.01,.79,.02,1.18-.01,.84-.07,1.33,.2,1.37,1.03,.06,1.2-.02,2.4-.03,3.6-.02,2.2-.64,4.29-1.27,6.35-.32,1.05-1.05,1.98-1.62,2.95-1.42,2.4-3.55,4.13-5.91,5.45-1.97,1.1-4.18,1.75-6.55,1.54-1.4-.13-2.81-.09-4.21-.14-.26,0-.52-.05-.78-.11-.83-.21-1.65-.5-2.5-.65-2.13-.38-3.9-1.43-5.47-2.85-1.52-1.36-2.98-2.8-4.01-4.57-.81-1.39-1.47-2.88-2.21-4.32-1.53-2.93-1.96-6.15-2.49-9.34-.26-1.59-.41-3.2-.53-4.19Z"/><path class="d" d="M41.71,117c-.13,1.05-.34,2.69-1.32,4.11-.6,.86-1.04,1.84-1.94,2.47-.31,.22-.26,.51,.04,.75,.37,.3,.73,.6,1.08,.91,1.38,1.24,2.6,2.67,3.42,4.3,1.14,2.28,1.74,4.73,1.15,7.33-.07,.31-.13,.63-.18,.94-.26,1.66-.89,3.14-2.14,4.32-.64,.61-1.19,1.31-1.86,1.87-.86,.71-1.99,.73-3.04,.93-1.84,.36-3.46-.4-5.1-1.05-1.06-.42-2.16-.75-3.2-1.22-.76-.34-1.47-.83-2.17-1.29-.78-.51-1.56-1.03-2.29-1.61-.98-.78-1.96-1.56-2.85-2.44-.86-.85-1.64-1.79-2.39-2.74-.22-.27-.3-.68-.34-1.05-.09-.75-.12-1.5-.17-2.25-.14-2.08-.34-4.16-.4-6.25-.09-3.35-.07-6.7-.09-10.05,0-.47,.03-.94,.07-1.41,.05-.56-.15-.98-.69-1.15-.83-.26-1.67-.46-2.5-.69-.25-.07-.51-.12-.77-.17-.54-.1-.8-.4-.85-.96-.17-1.95-.38-3.9-.55-5.85-.07-.85,.2-1,.99-.74,.62,.2,1.28,.29,1.92,.41,.77,.15,1.54,.26,2.31,.43,2.93,.65,5.9,.56,8.87,.65,1.01,.03,2.01,.26,3.01,.37,.33,.04,.68-.07,1.01-.01,1.22,.2,2.44,.43,3.66,.65,.18,.03,.38,.14,.55,.1,.9-.21,1.62,.22,2.31,.68,.71,.47,1.45,.9,2.06,1.47,.47,.43,.84,1.01,1.12,1.58,.93,1.89,1.31,3.92,1.29,6.62Zm-15.79,1.96h-.08c0,.57,.01,1.13,0,1.7-.03,1.03,.46,1.51,1.49,1.38,.91-.12,1.82-.33,2.73-.41,1.95-.19,3.06-1.49,3.87-3.02,.81-1.54,.36-3.14-.36-4.6-.29-.59-.68-1.28-1.42-1.45-.81-.18-1.65-.28-2.48-.35-1.06-.08-2.13-.04-3.19-.14-.65-.06-.9,.1-.87,.77,.11,2.04,.21,4.09,.31,6.14Zm.09,11.66c-.13,1.03,.11,1.89,1.05,2.48,1,.63,1.93,1.39,2.97,1.95,1.81,.97,3.65,1.93,5.85,1.5,1-.19,1.61-.79,1.36-1.78-.2-.79-.56-1.54-.91-2.27-1.22-2.48-3.49-3.47-5.99-4.06-.42-.1-.9-.02-1.35,0-.5,.03-1.01,.09-1.51,.15-.33,.04-.67,.09-1,.15-.5,.08-.63,.4-.55,.87,.05,.33,.05,.67,.07,1.01Z"/><path class="d" d="M136.54,40.1c0,.79,0,1.58,0,2.37,0,.51-.23,.76-.76,.87-.82,.17-1.62,.45-2.43,.67-.16,.05-.33,.09-.49,.12-1.14,.22-2.28,.43-3.42,.65-.55,.11-.88,.39-.95,1.01-.27,2.35-.15,4.7-.07,7.04,.02,.43,.24,.57,.64,.41,1.91-.75,3.9-1.24,5.9-1.74,2-.5,3.93-1.25,5.9-1.88,.38-.12,.76-.22,1.14-.31,.83-.2,1.07-.5,1.17-1.35,.24-1.9,.48-3.81,.77-5.7,.17-1.07,.33-1.18,1.43-1.1,.39,.03,.79,.09,1.15,.25,1.14,.5,2.25,1.06,3.38,1.57,.49,.23,.67,.56,.62,1.12-.24,2.74-.44,5.48-.65,8.22-.07,.97-.28,1.15-1.23,1.5-.99,.37-1.97,.79-2.9,1.3-1.8,.99-3.77,1.49-5.71,2.08-.99,.3-1.98,.6-2.99,.81-2.2,.46-4.3,1.19-6.33,2.14-1.98,.92-3.91,1.94-5.94,2.74-1.16,.46-2.45,.76-3.74,.28-.5-.19-.74-.53-.77-1.11-.12-3.08-.32-6.16-.41-9.25-.09-2.89-.04-5.79-.12-8.69-.06-2.37-.22-4.74-.3-7.11-.06-1.79-.04-3.58-.07-5.36-.08-4.07-.18-8.13-.23-12.19,0-.71,.13-1.42,.22-2.12,.07-.56,.45-.78,.96-.72,.78,.09,1.56,.22,2.33,.37,1.09,.21,2.17,.42,3.25,.67,1.27,.29,2.61,.4,3.72,1.22,.24,.18,.61,.19,.9,.3,1.2,.48,2.4,.97,3.6,1.46,.17,.07,.35,.19,.52,.2,1.77,.14,3.21,1.15,4.79,1.77,.6,.24,.92,.74,1.01,1.34,.12,.83,.15,1.68,.22,2.51,.02,.19,.06,.37,.05,.56,0,.39,.04,.81-.08,1.16-.32,.95-.71,1.09-1.63,.7-.84-.35-1.64-.76-2.6-.83-.65-.05-1.27-.42-1.91-.65-.14-.05-.28-.13-.42-.16-1.74-.32-3.47-.65-5.21-.92-.8-.12-.96,.16-.94,.96,.06,2.09,.05,4.18,.1,6.26,.02,.94,.09,1.88,.17,2.81,.04,.41,.24,.81,.72,.65,1.73-.59,3.54-.39,5.3-.64,.47-.07,.99,.09,1.46,.24,.55,.17,.77,.62,.77,1.19,0,.77,0,1.54,0,2.32h.07Z"/><path class="d" d="M7.9,126.57c.6,.72,1.24,1.41,1.78,2.17,1.72,2.4,3.68,4.57,5.77,6.65,1.16,1.15,2.19,2.45,3.38,3.56,1.21,1.12,2.51,2.15,3.84,3.13,1.19,.88,2.46,1.66,3.72,2.44,.8,.49,1.66,.88,2.48,1.34,.42,.24,.82,.52,1.23,.79,.09,.06,.18,.14,.28,.19,1.58,.77,3.16,1.55,4.76,2.3,2.19,1.03,4.38,2.05,6.59,3.02,1.12,.49,2.3,.84,3.44,1.27,.76,.29,1.5,.61,2.25,.92,1.13,.45,2.24,.95,3.39,1.34,.83,.28,1.71,.39,2.56,.58,.13,.03,.27,.04,.38,.11,.57,.32,1.1,.52,1.82,.49,.81-.04,1.64,.33,2.45,.53,1.59,.39,3.17,.84,4.78,1.17,1.82,.37,3.67,.62,5.5,.91,1.11,.17,2.23,.32,3.34,.48,.18,.03,.36,.11,.54,.13,.31,.03,.63,.05,.95,.05,.3,0,.6-.06,.89-.03,2.91,.3,5.81,.73,8.76,.66,.96-.02,1.92,.23,2.88,.35,.11,.01,.22,.05,.33,.04,1.99-.11,3.97-.19,5.95-.36,1.52-.13,3.03-.34,4.54-.57,2.21-.34,4.43-.65,6.62-1.11,2.02-.42,4.02-1,6.02-1.52,3.82-.99,7.38-2.69,11.03-4.14,1.94-.77,3.81-1.7,5.69-2.62,1.53-.75,3-1.6,4.51-2.4,.48-.25,1.01-.42,1.46-.72,1.54-1.01,3.02-2.09,4.57-3.08,1.34-.86,2.77-1.59,4.11-2.44,1.09-.69,2.13-1.47,3.19-2.22,.7-.5,1.42-.99,2.08-1.56,1.51-1.3,3-2.62,4.45-3.98,.82-.77,1.54-1.65,2.35-2.44,2.47-2.41,4.69-5.04,6.76-7.79,.77-1.02,1.63-1.97,2.47-2.93,.1-.11,.31-.13,.48-.19,.01,.17,.1,.38,.03,.5-.46,.86-.95,1.7-1.44,2.54-.2,.34-.38,.7-.63,1-1,1.2-2.01,2.39-3.03,3.57-1.2,1.4-2.37,2.82-3.62,4.18-.7,.75-1.55,1.36-2.29,2.08-1.32,1.28-2.57,2.65-3.93,3.88-1.27,1.14-2.64,2.17-3.98,3.23-.53,.42-1.07,.83-1.64,1.2-.42,.27-.91,.43-1.35,.68-1.48,.85-2.95,1.72-4.42,2.58-.81,.47-1.65,.88-2.41,1.42-.74,.52-1.37,1.19-2.07,1.76-.33,.27-.7,.48-1.05,.7-.2,.13-.46,.2-.62,.36-.64,.65-1.44,.97-2.29,1.27-.77,.28-1.47,.75-2.22,1.1-1.32,.62-2.66,1.22-3.99,1.83-1.69,.77-3.37,1.57-5.08,2.31-1.05,.46-2.11,.9-3.2,1.25-1.63,.53-3.27,1.03-4.93,1.43-1.61,.39-3.25,.65-4.88,.96-.97,.19-1.94,.4-2.91,.58-1,.18-2,.39-3,.49-2.84,.28-5.69,.58-8.54,.73-2.19,.12-4.39,.05-6.59,.04-1.56,0-3.11-.02-4.67-.12-1.48-.09-2.96-.27-4.44-.43-.88-.09-1.76-.17-2.63-.32-1.72-.3-3.44-.61-5.15-.97-2.53-.54-5.07-1.09-7.58-1.71-3.21-.8-6.41-1.65-9.6-2.53-1.19-.33-2.34-.83-3.5-1.26-1.48-.55-2.98-1.05-4.42-1.68-1.16-.5-2.24-1.17-3.37-1.74-.57-.29-1.18-.48-1.75-.76-1.45-.71-2.92-1.39-4.33-2.17-.8-.44-1.51-1.05-2.26-1.57-.15-.1-.33-.17-.49-.25-.39-.18-.82-.3-1.15-.56-1.25-.96-2.45-1.97-3.7-2.93-.49-.38-1.07-.63-1.57-.99-2.11-1.51-3.69-3.56-5.5-5.38-.86-.86-1.77-1.68-2.59-2.57-1.03-1.13-2.05-2.29-2.97-3.52-.7-.92-1.22-1.97-1.86-2.94-.31-.47-.88-.79-.87-1.46,0-.09,0-.18,0-.27l.12-.05Z"/><path class="d" d="M172.42,52.3c-.13-.12-.28-.22-.38-.35-.26-.34-.52-.69-.76-1.05-2.71-4.14-5.36-8.33-8.13-12.43-1.61-2.38-3.39-4.65-5.6-6.54-.38-.33-.82-.61-1.19-.94-1.5-1.33-3.02-2.65-4.48-4.03-2.62-2.47-5.65-4.34-8.75-6.11-1.92-1.09-3.92-2.08-5.96-2.95-2.09-.88-4.28-1.56-6.42-2.32-.44-.16-.9-.29-1.34-.45-1.62-.6-3.23-1.24-4.86-1.81-.8-.28-1.62-.48-2.44-.69-3.42-.88-6.85-1.77-10.28-2.63-1.06-.26-2.14-.41-3.2-.66-.5-.12-.98-.36-1.47-.54-.12-.05-.25-.15-.36-.13-.88,.2-1.67-.18-2.48-.39-2.38-.62-4.79-.84-7.24-.84-1.71,0-3.42-.2-5.13-.22-1.71-.02-3.42,.06-5.12,.1-1.17,.03-2.33,.06-3.5,.11-1.96,.08-3.88,.46-5.78,.93-1.36,.34-2.76,.48-4.14,.74-.79,.14-1.56,.33-2.35,.5-.7,.15-1.39,.31-2.09,.47-1.02,.23-2.06,.43-3.07,.72-.8,.23-1.61,.5-2.32,.92-1.04,.61-2.16,.92-3.3,1.23-.95,.26-1.84,.71-2.76,1.05-.65,.24-1.31,.42-1.96,.66-.24,.09-.45,.26-.67,.4-.14,.09-.27,.21-.43,.27-.89,.32-1.82,.57-2.68,.96-1.79,.82-3.55,1.71-5.32,2.59-1.13,.56-2.26,1.11-3.37,1.71-1.9,1.02-3.82,2.03-5.68,3.13-1.47,.87-2.91,1.8-4.29,2.8-1.43,1.03-2.78,2.19-4.17,3.28-1.45,1.14-2.91,2.26-4.36,3.4-1.42,1.11-2.83,2.21-4.25,3.32-.9,.71-1.78,1.44-2.7,2.13-.17,.13-.45,.11-.68,.15,.03-.24-.02-.56,.11-.72,.58-.67,1.19-1.31,1.83-1.91,2.63-2.49,5.54-4.64,8.45-6.78,1.03-.76,2.01-1.59,3.03-2.36,.42-.31,.91-.53,1.34-.82,.62-.42,1.26-.82,1.82-1.31,1.62-1.42,3.47-2.44,5.37-3.4,.89-.45,1.72-1,2.6-1.48,1.49-.81,2.97-1.62,4.48-2.4,2.09-1.08,4.15-2.22,6.3-3.17,1.87-.82,3.84-1.4,5.77-2.09,.46-.16,.91-.36,1.37-.52,2.54-.86,5.08-1.75,7.64-2.57,1.27-.41,2.58-.68,3.87-1.02,1.23-.33,2.45-.71,3.69-.98,2.79-.61,5.61-1.04,8.46-1.28,2.01-.17,4.01-.38,6.02-.49,1.1-.06,2.22,.1,3.32,.03,1.19-.08,2.25,.19,3.38,.54,.94,.29,2.04,0,3.06,.1,1.76,.15,3.51,.38,5.26,.6,1.06,.14,2.12,.31,3.18,.5,2.17,.38,4.35,.71,6.49,1.2,2.38,.54,4.71,1.3,7.09,1.84,1.71,.39,3.25,1.17,4.87,1.78,.47,.18,.97,.29,1.45,.44,1.65,.51,3.32,.96,4.94,1.56,1.49,.55,2.92,1.3,4.4,1.9,.63,.26,1.36,.3,1.98,.59,1.26,.59,2.5,1.23,3.7,1.93,2.1,1.22,4.16,2.49,6.23,3.75,.89,.55,1.83,1.05,2.62,1.72,1.5,1.25,2.9,2.61,4.35,3.93,1.1,1,2.2,1.99,3.3,3,.33,.3,.67,.61,.95,.96,1.45,1.81,2.89,3.62,4.31,5.45,.92,1.18,1.9,2.33,2.69,3.6,.86,1.38,1.79,2.73,2.62,4.11,1.24,2.05,2.11,4.32,3.12,6.51,.1,.22,.12,.48,.18,.73l-.19,.11Z"/><path class="d" d="M18.92,61.71c-.12,1.29,.28,2.53,.69,3.79,.62,1.9,1.49,3.66,2.47,5.37,.44,.78,1.08,1.44,1.55,2.21,.94,1.56,1.84,3.14,2.71,4.74,.37,.67,.63,1.41,.9,2.13,.62,1.67,.81,3.36,.15,5.08-.48,1.24-1.13,1.69-2.45,1.67-.71,0-1.43-.03-2.14-.05-1.04-.03-1.85-.55-2.61-1.21-.24-.21-.52-.37-.76-.58-.3-.25-.65-.48-.87-.79-1.53-2.16-2.92-4.39-3.37-7.07-.25-1.5-.7-3-.74-4.51-.07-2.89-.17-5.83,1.11-8.54,.58-1.21,1.36-2.34,2.12-3.45,.21-.31,.69-.45,1.04-.67,.06,.37,.14,.74,.18,1.12,.03,.22,0,.45,0,.74Z"/><path class="d" d="M29.15,84.89c0-.16-.02-.33,0-.48,.29-1.99-.05-3.85-.83-5.72-.87-2.08-1.86-4.07-3.09-5.95-.1-.16-.2-.32-.32-.47-1.66-1.94-2.78-4.18-3.63-6.58-.12-.36-.24-.72-.4-1.06-.66-1.39-.6-2.87-.42-4.33,.18-1.36,1.21-2.29,2.79-2.42,1.79-.15,3.42,.35,4.75,1.62,.76,.73,1.64,1.38,2.2,2.24,1.27,1.97,2.19,4.14,2.37,6.52,.18,2.3,.32,4.62,.29,6.93-.03,2.26-.39,4.49-1.33,6.6-.4,.92-.74,1.86-1.45,2.59-.23,.23-.5,.42-.75,.62l-.18-.11Z"/><path class="d" d="M103,1.53c-.22,.03-.44,.09-.66,.09-2.28,.03-4.55,.05-6.83,.07-.72,0-1.43-.05-2.15,0-3.07,.18-6.15,.34-9.22,.6-1.63,.13-3.24,.44-4.86,.67-1.39,.2-2.79,.38-4.18,.62-1.56,.27-3.1,.61-4.66,.88-3.46,.6-6.84,1.51-10.14,2.68-3.61,1.28-7.18,2.71-10.74,4.14-2.29,.91-4.55,1.89-6.78,2.93-1.03,.48-1.98,1.15-2.95,1.75-1.38,.84-2.77,1.68-4.14,2.54-1.25,.8-2.48,1.63-3.71,2.45-.39,.26-.77,.55-1.17,.8-.18,.11-.39,.17-.58,.25l-.11-.11c.06-.16,.09-.36,.2-.47,1.56-1.57,2.91-3.4,4.95-4.4,1.91-.94,3.52-2.3,5.29-3.43,.68-.43,1.4-.79,2.12-1.16,.9-.46,1.82-.89,2.73-1.33,1.41-.68,2.8-1.38,4.22-2.03,1.33-.61,2.7-1.14,4.04-1.73,2.35-1.02,4.78-1.8,7.27-2.4,2.12-.51,4.21-1.09,6.23-1.93,1.05-.43,2.21-.63,3.33-.85,1.34-.27,2.71-.45,4.06-.69C78.87,.72,83.17,.11,87.53,.01c1.99-.04,3.99,.02,5.98,.12,1.33,.07,2.64,.3,3.97,.46,1.69,.21,3.39,.42,5.08,.64,.15,.02,.3,.07,.45,.11v.18Z"/><path class="d" d="M143.59,146.82c-.11,.18-.21,.37-.34,.54-1.58,2.15-3.57,3.86-5.79,5.32-.72,.47-1.33,1.13-2.01,1.67-.44,.35-.9,.69-1.4,.94-1.37,.7-2.77,1.35-4.15,2.02-.1,.05-.2,.1-.29,.17-1.76,1.54-3.93,2.23-6.09,2.94-.57,.19-1.13,.42-1.69,.63-1.29,.49-2.56,1.07-3.89,1.43-1.21,.33-2.36,.89-3.64,.95-.47,.02-.92,.28-1.39,.4-1.71,.43-3.42,.87-5.14,1.26-.93,.21-1.88,.31-2.81,.49-.68,.13-1.34,.35-2.02,.48-1.12,.22-2.25,.41-3.37,.57-.22,.03-.47-.08-.69-.18-.37-.16-.6-.08-.89,.21-.25,.26-.64,.54-.98,.55-1.61,.06-3.23,.03-4.84,.04-.15,0-.31-.02-.45,.02-1.08,.29-2.17,.23-3.28,.21-1.12-.01-2.24,.14-3.37,.12-1.33-.02-2.65-.13-3.97-.22-1.5-.1-3-.19-4.49-.34-1.4-.14-2.79-.35-4.19-.51-.24-.03-.49,.05-.72,0-.16-.03-.3-.2-.45-.31,.16-.05,.32-.17,.48-.15,1.36,.11,2.72,.3,4.07-.04,1.06-.27,2.09,.1,3.13,.15,.72,.04,1.45,.09,2.17,.14,.39,.03,.77,.05,1.16,.08,.11,0,.22,.06,.33,.06,.93-.05,1.86-.12,2.79-.16,1.01-.05,2.01-.07,3.02-.11,1.24-.05,2.48-.05,3.71-.17,1.57-.15,3.13-.37,4.69-.59,.57-.08,1.13-.26,1.7-.35,.38-.06,.78,.01,1.17-.05,1.39-.23,2.77-.47,4.16-.73,.59-.11,1.17-.28,1.75-.42,2.31-.55,4.64-1,6.91-1.66,2.44-.71,4.82-1.62,7.22-2.45,.76-.26,1.54-.5,2.28-.83,1.39-.63,2.75-1.31,4.12-1.97,.85-.41,1.72-.76,2.53-1.23,1.91-1.1,3.77-2.28,5.67-3.39,1.05-.61,2.18-1.09,3.21-1.74,1.88-1.19,3.71-2.45,5.56-3.68,.14-.09,.28-.17,.42-.25l.14,.12Z"/><path class="d" d="M152.09,52.34c.13-1.23,.24-2.33,.37-3.43,.08-.63,.5-.97,1.11-1.01,.69-.05,1.4-.09,2.08-.02,1.77,.2,3.53,.46,5.3,.71,.87,.12,1.74,.29,2.62,.42,.91,.14,1.4,.61,1.56,1.57,.15,.88,.49,1.73,.74,2.6,.15,.53,.36,1.11-.14,1.53-.49,.4-1.08,.29-1.66,.06-.32-.13-.72-.24-1.03-.16-1.17,.32-2.31,.11-3.46-.05-1.06-.15-2.13-.23-3.19-.3-1.01-.07-2.03-.09-3.04-.14-.76-.04-.9-.18-1.04-.91-.06-.29-.14-.59-.2-.88,0-.04,0-.07,0,.02Z"/><path class="d" d="M10.65,109.84c.03,.54-.12,.69-.61,.49-1.1-.44-2.19-.91-3.28-1.37-1.11-.47-1.77-1.37-2.22-2.43-.48-1.12-.92-2.26-1.39-3.39-.11-.28-.32-.51-.42-.79-.27-.73-.56-1.46-.75-2.22-.13-.5,.12-.65,.62-.43,1.7,.75,3.41,1.5,5.11,2.24,.61,.26,1.26,.45,1.85,.75,.25,.13,.51,.47,.54,.74,.15,1.1,.21,2.21,.3,3.31,.08,1.03,.16,2.06,.25,3.09Z"/><path class="d" d="M172.43,68.8c.11,.23,.27,.44,.32,.68,.4,1.71,1.02,3.39,.8,5.21-.08,.68,.14,1.38,.15,2.08,0,.55-.1,1.11-.13,1.66-.02,.47,0,.94,0,1.41-.02,.65-.05,1.31-.1,1.96-.06,.9-.09,1.8-.21,2.7-.23,1.73-.5,3.45-.78,5.16-.07,.42-.22,.83-.36,1.24-.18,.54-.42,1.05-.04,1.62,.09,.13,.05,.37,0,.54-.26,.86-.59,1.71-.82,2.57-.14,.51-.09,1.08-.22,1.6-.2,.84-.47,1.66-.7,2.49,0,.02,0,.04-.02,.05-.24,.21-.52,.63-.71,.59-.45-.09-.27-.55-.21-.86,.46-2.75,.91-5.49,1.4-8.23,.25-1.42,.61-2.83,.84-4.26,.18-1.13,.26-2.27,.33-3.41,.07-1.12,.08-2.25,.12-3.38,.06-1.35,.18-2.7,.19-4.05,.02-2.2-.02-4.4-.03-6.6,0-.24,0-.47,0-.71l.18-.06Z"/><path class="d" d="M172.52,156.62c-.51-.24-1.1-.43-1.61-.76-2.33-1.51-4.47-3.25-6.45-5.2-1.58-1.55-3.07-3.19-4.61-4.79-.46-.47-.96-.9-1.4-1.39-.23-.26-.39-.59-.51-.91-.2-.53-.31-1.09-.96-1.3-.11-.04-.15-.29-.23-.44,.18-.04,.4-.16,.53-.1,.39,.18,.77,.4,1.1,.68,1.45,1.22,2.9,2.45,4.32,3.71,1.03,.91,2.01,1.87,3.02,2.8,1,.91,2.02,1.8,3,2.72,1.37,1.28,2.71,2.58,4.07,3.87,.08,.08,.16,.17,.21,.27,.09,.18,.15,.37,.23,.56l-.72,.28Z"/><path class="d" d="M143.47,26.45c.26,.06,.56,.05,.76,.19,.99,.65,1.97,1.32,2.91,2.03,1.2,.9,2.33,1.91,3.55,2.78,1.89,1.34,3.49,2.96,5.01,4.69,.92,1.06,1.92,2.05,2.88,3.08,.14,.15,.22,.35,.35,.51,.47,.6,.96,1.19,1.43,1.8,.5,.65,.99,1.31,1.46,1.98,.29,.41,.57,.84,.81,1.28,.13,.24,.19,.52,.28,.79l-.17,.09c-.34-.34-.7-.66-1.02-1.02-1.5-1.64-2.98-3.29-4.48-4.91-1.89-2.04-3.73-4.15-5.74-6.06-2.12-2.02-4.43-3.85-6.65-5.76-.48-.41-.98-.8-1.47-1.2l.09-.27Z"/><path class="d" d="M161,159.66c-.61,.29-.91-.04-1.16-.3-.65-.67-1.28-1.38-1.88-2.1-.38-.46-.68-.99-1.05-1.46-.66-.84-1.36-1.64-2-2.48-.8-1.06-1.65-2.1-2.3-3.25-.82-1.46-1.87-2.75-2.74-4.16-.09-.14-.22-.28-.25-.44-.04-.18,.02-.37,.03-.56,.19,.02,.45-.04,.56,.06,.79,.74,1.57,1.5,2.32,2.29,.5,.53,.93,1.12,1.42,1.67,1.37,1.54,2.5,3.24,3.52,5.03,.25,.44,.56,.85,.8,1.3,.22,.42,.36,.89,.59,1.32,.2,.38,.46,.72,.71,1.07,.47,.67,.94,1.33,1.43,2.03Z"/><path class="d" d="M8.44,96.02c-.54-.53-1.13-1.03-1.62-1.6-.43-.49-.76-1.08-1.14-1.61-.21-.29-.43-.57-.65-.85-.14-.18-.32-.34-.4-.54-.36-.9-.68-1.82-1.03-2.73-.36-.96-.82-1.9-1.09-2.89-.37-1.36-.71-2.74-.87-4.13-.19-1.69-.18-3.41-.22-5.12,0-.21,.21-.42,.32-.63,.11,.21,.3,.41,.33,.64,.29,2.39,.46,4.79,1.09,7.13,.65,2.44,1.4,4.85,2.56,7.09,.78,1.5,1.74,2.91,2.61,4.36,.14,.23,.21,.5,.32,.75l-.21,.14Z"/><path class="d" d="M158.58,45.62c-.24-.17-.5-.32-.73-.5-1.34-1.02-2.52-2.19-3.48-3.59-.17-.24-.5-.38-.75-.57-.22-.17-.47-.31-.66-.51-1.49-1.54-2.92-3.14-4.47-4.62-1.13-1.09-2.42-2.01-3.63-3.03-.35-.3-.65-.66-.98-.99l.08-.13c.17,.07,.35,.13,.51,.22,1.82,.96,3.49,2.14,5.03,3.52,1.7,1.53,3.43,3.03,5.07,4.63,.92,.9,1.7,1.96,2.5,2.97,.45,.56,.83,1.16,1.23,1.76,.15,.23,.27,.48,.4,.73l-.13,.12Z"/><path class="d" d="M5.9,111.65c.41,.65,.86,1.27,1.23,1.94,1.5,2.65,2.96,5.33,4.48,7.98,.54,.94,1.27,1.78,1.84,2.71,.91,1.46,1.76,2.96,2.59,4.47-1.29-.79-2.18-1.91-2.96-3.16-.54-.87-1.25-1.64-1.83-2.48-.63-.91-1.27-1.83-1.81-2.79-.71-1.26-1.37-2.55-1.98-3.86-.57-1.23-1.06-2.49-1.56-3.75-.12-.3-.15-.64-.22-.96l.22-.08Z"/><path class="d" d="M5.38,14.97c.3-.15,.48-.05,.62,.24,.36,.73,.71,1.46,1.11,2.16,.72,1.24,1.49,2.46,2.23,3.7,.31,.52,.6,1.06,.9,1.59,.03,.05,.06,.12,.09,.13,.91,.08,.86,.92,1.17,1.48,.04,.06,.04,.15,.07,.21,.7,1.16,1.39,2.32,2.12,3.46,.55,.85,1.16,1.65,1.73,2.48,.09,.13,.1,.32,.15,.48l-.16,.09c-.23-.34-.44-.69-.69-1-.18-.23-.4-.44-.63-.62-1.54-1.18-2.52-2.81-3.56-4.38-1.09-1.64-2.09-3.35-3.09-5.06-.51-.88-.93-1.81-1.38-2.73-.05-.11,0-.27-.04-.39-.06-.15-.17-.28-.26-.42-.24-.4-.49-.8-.73-1.2,.17-.1,.27-.16,.36-.22h-.01Z"/><path class="d" d="M165.37,97.16c.21-1.08,.37-2.17,.65-3.24,.8-3.14,1.29-6.33,1.61-9.55,.16-1.66,.27-3.33,.35-5,.03-.58-.08-1.16-.12-1.74-.01-.17,0-.34,0-.51l.15-.03c.06,.1,.16,.19,.19,.3,.19,.86,.48,1.72,.52,2.59,.11,2.03,.11,4.05-.31,6.07-.33,1.56-.41,3.17-.77,4.72-.42,1.82-1.01,3.6-1.55,5.4-.11,.37-.3,.71-.45,1.06l-.26-.08Z"/><path class="d" d="M131.39,9.65c-1.04-.41-2.08-.82-3.12-1.22-.19-.07-.39-.12-.57-.2-.3-.13-.59-.27-.88-.4-.25-.12-.49-.27-.75-.35-1.17-.36-2.35-.7-3.53-1.04-.59-.17-1.2-.28-1.79-.46-1.19-.37-2.37-.78-3.55-1.15-.35-.11-.73-.15-1.1-.23-.49-.11-.99-.22-1.48-.34-.09-.02-.2-.15-.2-.23,0-.09,.1-.22,.18-.25,.23-.07,.49-.18,.7-.13,2.01,.44,4.01,.9,6.01,1.37,2.6,.6,5.01,1.74,7.43,2.82,.96,.43,1.81,1.09,2.71,1.65l-.07,.16Z"/><path class="d" d="M173.1,145.21c-.22,.02-.46,.12-.6,.04-.86-.52-1.76-1.01-2.54-1.64-1.48-1.2-2.89-2.49-4.31-3.76-.36-.32-.68-.69-1.02-1.03-.42-.43-.85-.84-1.23-1.29-.12-.14-.09-.39-.14-.59,.23,0,.52-.1,.66,0,.99,.74,1.95,1.52,2.92,2.28,.19,.15,.37,.31,.56,.46,.32,.26,.67,.49,.96,.78,.91,.9,1.78,1.82,2.69,2.72,.17,.16,.46,.2,.63,.36,.46,.44,.88,.91,1.31,1.38,.03,.04,.04,.1,.1,.29Z"/><path class="d" d="M49.61,161.3c.45-.06,.77-.18,1.05-.12,1.04,.23,2.08,.44,3.03,1.01,.55,.33,1.27,.38,1.92,.57,.55,.16,1.1,.37,1.65,.53,.62,.18,1.25,.4,1.89,.48,1.06,.12,2.07,.35,2.98,.92,.18,.12,.44,.12,.63,.22,.16,.09,.29,.25,.43,.38-.16,.14-.3,.35-.48,.39-.26,.06-.57,.04-.83-.03-1.14-.29-2.27-.57-3.4-.92-.5-.15-.95-.43-1.43-.66-.1-.05-.19-.16-.29-.16-.61-.02-1.07-.24-1.33-.84-.04-.08-.43-.12-.56-.03-.41,.25-.77,.17-1.18,.01-.8-.31-1.6-.6-2.42-.87-.55-.18-1.14-.24-1.66-.88Z"/><path class="d" d="M1.96,27.83c1.74,1.25,3.36,2.63,4.68,4.34,.6,.78,1.32,1.45,1.95,2.21,.47,.56,.88,1.17,1.29,1.78,.08,.12,.02,.33,.03,.51-.19-.01-.43,.04-.57-.05-1.11-.81-1.99-1.84-2.87-2.88-1-1.18-2.02-2.34-3.04-3.51-.37-.42-.78-.81-1.12-1.26-.23-.3-.35-.68-.51-1.03l.16-.11Z"/><path class="d" d="M20.05,26.69c-.19-.27-.33-.42-.41-.6-.59-1.32-1.15-2.64-1.75-3.95-.44-.95-.93-1.86-1.38-2.8-.19-.4-.31-.84-.51-1.24-.38-.73-.8-1.44-1.19-2.17-.08-.15-.17-.32-.15-.47,.02-.18,.15-.35,.23-.52,.15,.08,.38,.12,.45,.25,.29,.5,.52,1.03,.8,1.53,.67,1.2,1.38,2.38,2.04,3.59,1.03,1.9,1.97,3.84,1.95,6.08,0,.05-.02,.11-.07,.31Z"/><path class="d" d="M15.02,122.23c-1.63-.62-4.69-6.06-4.76-7.39,1.24,.24,4.76,5.83,4.76,7.39Z"/><path class="d" d="M.26,85.23c.94,2.58,1.88,5.17,2.83,7.81-.92-.24-1.6-.82-2-1.59-.4-.77-.68-1.63-.83-2.48-.19-1.1-.19-2.24-.26-3.36,0-.11,.05-.23,.08-.35l.17-.02Z"/><path class="d" d="M172.85,134.24c-.2-.02-.42,0-.61-.07-.64-.26-1.27-.55-1.91-.83-.15-.07-.31-.17-.47-.19-1.52-.23-2.33-1.41-3.27-2.42-.09-.1-.13-.39-.08-.43,.14-.09,.37-.17,.5-.11,.65,.32,1.29,.68,1.92,1.03,.21,.12,.41,.24,.61,.38,.41,.29,.81,.59,1.21,.89,.53,.38,1.06,.76,1.59,1.14,.19,.14,.38,.27,.57,.4l-.07,.22Z"/><path class="d" d="M.85,41.72c.15-.2,.24-.33,.33-.44,1.52,.69,3.21,1.02,4.21,2.51-.27,.39-.55,.42-.89,.2-.86-.56-1.71-1.11-2.57-1.66-.34-.21-.7-.39-1.08-.61Z"/><path class="d" d="M24.01,15.61c1.05,.7,1.58,3.45,1.2,5.08-.47-.24-.53-.45-.24-.85-.42-.35-1.09-3.27-.95-4.23Z"/><path class="d" d="M5.39,14.97c-.9-.34-.98-1.28-1.41-1.96-.21-.34-.33-.73-.49-1.1l.16-.08c.6,.87,1.21,1.73,1.79,2.61,.08,.12-.03,.35-.06,.53h0Z"/></g></g></g></svg>